PathFileType	4	(X/Y/Z)	Walk3.trc
DataRate	CameraRate	NumFrames	NumMarkers	Units	OrigDataRate	OrigDataStartFrame	OrigNumFrames
200.000000	200.000000	4	59	mm	200.000000	324	508
Frame#	Times		LFHD		RFHD		LBHD		RBHD		C7		T10		CLAV		STRN		RBack		LASI		RACR1		RUA1		RElbow		RFA1		RWRR		RWRU		RCAR		LACR1		LUA1		LElbow		LElbowM		LFA1		LWRR		LWRU		LCAR		RTH1		RTH3		RTH2		RTB1		RTB4		LTH1		LTH3		LTH2		LTH4		LLFC		LTB1		LTB2		LTB4		LMT1		LToe		LMMAL		RTB2		RTH4		LCAL		LTB3		RElbowM		LMT5		RTB3		LPSI		RPSI		LLMAL		RLFC		RASI		RMT1		RToe		RCAL		RMMAL		RMT5		RLMAL
			X1	Y1	Z1	X2	Y2	Z2	X3	Y3	Z3	X4	Y4	Z4	X5	Y5	Z5	X6	Y6	Z6	X7	Y7	Z7	X8	Y8	Z8	X9	Y9	Z9	X10	Y10	Z10	X11	Y11	Z11	X12	Y12	Z12	X13	Y13	Z13	X14	Y14	Z14	X15	Y15	Z15	X16	Y16	Z16	X17	Y17	Z17	X18	Y18	Z18	X19	Y19	Z19	X20	Y20	Z20	X21	Y21	Z21	X22	Y22	Z22	X23	Y23	Z23	X24	Y24	Z24	X25	Y25	Z25	X26	Y26	Z26	X27	Y27	Z27	X28	Y28	Z28	X29	Y29	Z29	X30	Y30	Z30	X31	Y31	Z31	X32	Y32	Z32	X33	Y33	Z33	X34	Y34	Z34	X35	Y35	Z35	X36	Y36	Z36	X37	Y37	Z37	X38	Y38	Z38	X39	Y39	Z39	X40	Y40	Z40	X41	Y41	Z41	X42	Y42	Z42	X43	Y43	Z43	X44	Y44	Z44	X45	Y45	Z45	X46	Y46	Z46	X47	Y47	Z47	X48	Y48	Z48	X49	Y49	Z49	X50	Y50	Z50	X51	Y51	Z51	X52	Y52	Z52	X53	Y53	Z53	X54	Y54	Z54	X55	Y55	Z55	X56	Y56	Z56	X57	Y57	Z57	X58	Y58	Z58	X59	Y59	Z59

324	1.62	-74.093	1430.4	-38.407	-84.375	1420.5	57.467	-208.14	1365.9	-68.457	-220.1	1360.3	64.05	-258.29	1275.2	-7.4555	-347.63	1075.7	-2.6992	-118.36	1188.6	-5.3816	-69.413	1081.2	1.171	-309.14	1151.9	108.19	-151.8	818.82	-166.45	-191.17	1216.7	174.23	-180.63	1070.3	251.73	-186.56	941.14	278.75	-122.69	826.61	278.79	-105.85	727.59	239.68	-135.46	726.96	305.71	-84.379	673.5	288.85	-187.88	1223.3	-194.32	-164.08	1058.5	-264.57	-189.55	938.83	-286.55	-222.75	912.27	-223.46	-104.34	861.39	-299.8	-40.4	772.75	-263.84	-76.505	753.23	-311.72	-23.651	721.53	-303.77	-171.8	642.73	207.79	-104.96	490.44	155.72	-89.636	593.63	169.77	-76.353	300.17	91.832	-105.95	219.73	81.591	-218.41	650.87	-212.78	-231.49	483.54	-164.86	-171.6	572.24	-168.04	-224.82	566.61	-193.24	-219.4	388.41	-127.19	-217.1	287.83	-59.543	-262.41	206.33	-113.89	-244.97	204.38	-54.271	-208.78	32.167	-21.371	-154.27	27.963	-46.891	-308.03	71.455	-3.3026	-140.95	225.48	131.22	-139.8	564.7	185.15	-374.42	46.644	-38.814	-265.81	123.48	-49.563	-238.51	910.44	208	-251.79	19.948	-107.7	-126.93	139.49	71.836	-401.05	859.41	-47.941	-392.34	852.43	56.955	-329.19	58.917	-82.697	-110.25	407.39	140.36	-133.97	833.06	160.96	-77.487	47.462	41.897	-32.573	51.099	82.468	-242.98	63.266	53.23	-168.9	93.502	22.857	-108.24	34.712	124.69	-187.49	83.114	103.78
325	1.625	-68.898	1430.2	-38.102	-79.17	1420.2	57.765	-202.84	1365.6	-68.196	-214.8	1359.8	64.306	-252.82	1274.9	-7.3125	-342.13	1075.3	-2.8298	-112.89	1188.3	-5.132	-63.922	1080.8	1.7637	-303.84	1151.6	108.13	-146.58	817.99	-166.28	-185.8	1216.2	174.37	-175.11	1069.8	251.79	-181.51	940.82	279	-117.82	826.24	279.3	-100.97	727.15	240.39	-130.77	726.62	306.32	-79.673	673.13	289.72	-182.16	1223.2	-194.12	-158.54	1058.5	-264.67	-183.41	938.69	-286.71	-216.45	911.87	-223.6	-97.285	862.06	-299.54	-32.5	774.29	-263.07	-68.16	754.26	-311.04	-14.962	723.26	-302.86	-166.36	642.4	208.06	-99.565	490.39	155.08	-84.195	593.49	169.77	-67.314	301.02	91.706	-93.663	219.48	81.641	-214.1	650.38	-212.61	-227.99	483.08	-164.75	-167.66	571.46	-167.97	-220.91	566.13	-193.12	-216.46	387.76	-127.16	-215.1	287.11	-59.409	-260.96	205.97	-113.79	-243.62	203.9	-54.125	-208.68	32.129	-21.307	-154.16	27.918	-46.968	-307.75	71.511	-3.1364	-128.79	223.92	131.29	-134.29	564.49	184.94	-374.31	47.079	-38.658	-265.09	123.15	-49.423	-233.39	910.12	208.23	-251.79	19.985	-107.62	-111.37	138.49	72.085	-395.83	859.23	-47.632	-386.88	852.14	57.168	-328.96	59.112	-82.578	-104.63	407.11	139.98	-128.94	832.96	161.4	-58.312	48.514	42.27	-13.599	54.157	82.729	-224.35	57.648	53.746	-151.48	90.847	23.196	-88.443	34.702	125.18	-169.55	79.773	104.18
326	1.63	-63.697	1430	-37.778	-73.954	1419.9	58.083	-197.54	1365.1	-67.911	-209.5	1359.3	64.587	-247.35	1274.5	-7.1392	-336.63	1074.9	-2.9324	-107.42	1187.9	-4.87	-58.431	1080.4	2.2969	-298.52	1151.2	108.1	-141.35	817.13	-166.1	-180.42	1215.8	174.53	-169.56	1069.2	251.87	-176.43	940.46	279.26	-112.91	825.82	279.84	-96.025	726.67	241.1	-126.04	726.24	306.92	-74.93	672.7	290.59	-176.45	1223	-193.9	-152.97	1058.4	-264.75	-177.3	938.53	-286.86	-210.18	911.43	-223.72	-90.294	862.7	-299.28	-24.681	775.79	-262.31	-59.901	755.27	-310.37	-6.3791	724.96	-301.96	-160.92	642.03	208.37	-94.412	490.19	154.54	-78.854	593.18	169.8	-58.509	301.89	91.618	-81.554	219.37	81.719	-209.79	649.87	-212.44	-224.47	482.61	-164.65	-163.69	570.67	-167.92	-217	565.64	-192.98	-213.47	387.11	-127.13	-213.04	286.37	-59.288	-259.49	205.6	-113.68	-242.24	203.43	-53.979	-208.58	32.089	-21.242	-154.05	27.874	-47.055	-307.46	71.593	-2.9578	-116.77	222.49	131.39	-128.92	564.19	184.81	-374.2	47.547	-38.48	-264.36	122.82	-49.278	-228.24	909.74	208.47	-251.8	20.023	-107.52	-95.963	137.73	72.354	-390.59	859.01	-47.26	-381.38	851.79	57.453	-328.73	59.33	-82.447	-99.273	406.7	139.66	-123.83	832.78	161.81	-39.361	49.883	42.643	5.078	57.504	82.985	-205.71	52.382	54.254	-134.14	88.496	23.538	-68.837	35.033	125.65	-151.68	76.748	104.58
327	1.635	-58.49	1429.7	-37.435	-68.729	1419.6	58.421	-192.23	1364.7	-67.601	-204.18	1358.8	64.893	-241.87	1274.1	-6.9338	-331.12	1074.5	-3.0032	-101.94	1187.5	-4.5956	-52.937	1080	2.7653	-293.2	1150.8	108.1	-136.11	816.24	-165.89	-175.03	1215.2	174.73	-164	1068.7	251.96	-171.32	940.04	279.54	-107.97	825.36	280.4	-91.034	726.14	241.81	-121.27	725.81	307.54	-70.149	672.23	291.46	-170.74	1222.8	-193.65	-147.36	1058.4	-264.79	-171.23	938.35	-286.98	-203.95	910.98	-223.82	-83.367	863.31	-299.02	-16.946	777.26	-261.55	-51.732	756.26	-309.7	2.0936	726.61	-301.05	-155.49	641.61	208.71	-89.496	489.83	154.12	-73.613	592.68	169.85	-49.936	302.78	91.561	-69.652	219.38	81.82	-205.5	649.35	-212.26	-220.91	482.13	-164.53	-159.72	569.87	-167.9	-213.07	565.13	-192.85	-210.43	386.45	-127.1	-210.91	285.63	-59.18	-258	205.24	-113.57	-240.83	202.95	-53.835	-208.46	32.049	-21.177	-153.93	27.832	-47.152	-307.16	71.704	-2.7671	-104.92	221.19	131.51	-123.69	563.79	184.75	-374.08	48.054	-38.279	-263.61	122.51	-49.129	-223.05	909.32	208.75	-251.82	20.062	-107.42	-80.755	137.22	72.637	-385.33	858.76	-46.827	-375.85	851.38	57.808	-328.5	59.572	-82.302	-94.167	406.17	139.41	-118.63	832.54	162.2	-20.703	51.553	43.003	23.398	61.109	83.222	-187.14	47.504	54.756	-116.96	86.462	23.88	-49.488	35.692	126.12	-133.93	74.057	104.98
